# xmcd
#
# Track frame offsets: 
#        180
#        30822
#        102441
#        193639
#
# Disc length: 3853 seconds
#
# Revision: 1
# Processed by: cddbd v1.5PL3 Copyright (c) Steve Scherf et al.
# Submitted via: ExactAudioCopy v0.95a4
#
DISCID=260f0b04
DTITLE=T. R. Mahalingam - One And Only Mali
DYEAR=1996
DGENRE=Indian Karnatic Classical
TTITLE0=Tulasibilva - Kedaragowla
TTITLE1=Evarimata - Kamboji
TTITLE2=Mee Valla Gunadosha - Kapi
TTITLE3=Ragam Tanam Pallavi - Behag
EXTD=
EXTT0=
EXTT1=
EXTT2=
EXTT3=
PLAYORDER=
